<?xml version="1.0" encoding="UTF-8"?>
<svg xmlns="http://www.w3.org/2000/svg" xmlns:xlink="http://www.w3.org/1999/xlink" viewBox="0 0 1920 1080">
  <defs>
    <style>
      .cls-1 {
        fill: url(#Gradiente_sem_nome_21);
      }

      .cls-2 {
        fill: #141414;
      }

      .cls-3 {
        fill: #2b2d2c;
      }

      .cls-4 {
        fill: #1c2230;
      }

      .cls-5 {
        fill: #101110;
      }

      .cls-6 {
        fill: #c9c9c9;
        stroke-width: .4px;
      }

      .cls-6, .cls-7 {
        stroke: #2a2829;
        stroke-miterlimit: 10;
      }

      .cls-8, .cls-7 {
        fill: #2a2829;
      }

      .cls-9 {
        fill: #2a3040;
      }

      .cls-10 {
        fill: #9a3425;
      }

      .cls-11 {
        fill: #262626;
      }

      .cls-12 {
        fill: #eaaa50;
      }

      .cls-13 {
        fill: #c5642d;
      }

      .cls-14 {
        fill: #b8442d;
      }

      .cls-15 {
        fill: #5c5e6a;
      }

      .cls-16 {
        fill: #f3b455;
      }

      .cls-17 {
        fill: #c98935;
      }

      .cls-18 {
        fill: #1e232d;
      }

      .cls-19 {
        fill: #282a29;
      }

      .cls-20 {
        fill: #1d1d1d;
      }

      .cls-21 {
        fill: #1b1b1b;
      }

      .cls-22 {
        fill: #232323;
      }

      .cls-23 {
        fill: #1e2b29;
      }

      .cls-24 {
        fill: #b24d1b;
      }

      .cls-25 {
        fill: #cb672c;
      }

      .cls-26 {
        fill: #292e42;
      }

      .cls-27 {
        fill: #233735;
      }

      .cls-28 {
        fill: #d6d3ca;
      }

      .cls-29 {
        fill: #fab34b;
      }

      .cls-30 {
        fill: #b5b5b5;
      }

      .cls-31 {
        fill: #31313d;
      }

      .cls-7 {
        stroke-width: .5px;
      }
    </style>
    <linearGradient id="Gradiente_sem_nome_21" data-name="Gradiente sem nome 21" x1="1588" y1="500" x2="2040.55" y2="500" gradientUnits="userSpaceOnUse">
      <stop offset="0" stop-color="#1b1b1b"/>
      <stop offset="1" stop-color="#232323"/>
    </linearGradient>
  </defs>
  <g id="Camada_3">
    <rect class="cls-2" x="-161" y="-109" width="2202" height="1225"/>
    <path class="cls-1" d="M1588,451c6,0,358-16,358-16l94.55,130-452.55-114Z"/>
    <path class="cls-22" d="M976.12,493.72c70.65-45.91,166.88-91.11,284.38-102.55,13.44-1.31,64.36-5.8,130.5.83,99.23,9.95,131.44,34.78,290,68,57.39,12.02,95.33,17.6,105,19,69.71,10.08,128.02,13.5,168.51,14.72l137.87,259.99s-626.62,18.29-624,18.29c2.62,0-492.26-278.28-492.26-278.28Z"/>
    <path class="cls-21" d="M-72,603c89.68-36.26,217.79-85.09,375-135,171.42-54.42,259.15-81.73,358-87,197.83-10.54,340.49,64.21,445,109,182.8,78.34,459.97,155.62,866,141,226.19,294.52,221.32,436.25,183,510.55C1816.11,1798.57-61,1052-61,1052h0c-3.67-149.67-7.33-299.33-11-449Z"/>
    <path class="cls-11" d="M-10.32,479c36.87,10.77,88.43,25.48,150.32,42h0s118.42,31.58,235.99,58c183.57,41.25,313.48,32.8,553,94,132.91,33.96,137.87,48.04,257.8,72,142.09,28.38,232.47,28.05,319.2,35,119.24,9.56,288.24,37.42,495.59,120.24,51.14,97.25,102.27,194.51,153.41,291.76l-2984-19L-10.32,479Z"/>
    <path class="cls-19" d="M907,664c-.33,1-.67,2-1,3,4.67,1.33,9.33,2.67,14,4v-7h-13Z"/>
  </g>
  <g id="Camada_4">
    <path class="cls-20" d="M1245.23,893.26c2.07,2.54,7.32,1.01,14.77-.26,5.78-.98,14.26-2.05,25-2,11.23,1.45,29.53,3.16,52,2,39.62-2.04,59.75-11.33,102-19,26.97-4.9,45.94-6.05,78-8,34.98-2.13,81.61-2.9,137,2-55.2-6-117.99-9.58-187-8-82.83,1.9-156.76,10.81-219.8,22.14-1.72,3.24-4.06,8.55-1.97,11.12Z"/>
    <path class="cls-20" d="M634,785c21.69-6.32,41.25-6.96,56-6,2.4-3.22,7.16-8.75,15-13,8.02-4.35,15.44-5.29,19.46-5.52,40.48,3.18,80.95,6.36,121.43,9.54,6.57.37,15.34,1.56,25.11,4.98,6.85,2.39,12.53,5.3,17,8,6.58-.65,13.6-1.03,21-1,27.52.1,50.98,5.71,69,12-16.03-2.19-36.51-3.43-60-1-16.02,1.66-30.13,4.67-42,8-2.28-.38-4.62-.71-7-1-18.38-2.2-35.24-.86-49.86,2-.37.35-.76.68-1.14,1-9.34,7.57-23.34,5.35-32,3-5.63-2.67-11.27-5.33-16.9-8-5.37-1.55-13.4-3.28-23.1-3-15.83.46-18.73,5.74-35,7-4.82.37-14.54-.75-34-3-10.78-1.25-14.36-1.82-24-3-9.02-1.11-22.11-2.59-38.28-4,5.78-2.53,12.21-4.94,19.28-7Z"/>
    <path class="cls-20" d="M911,809l12-3c5.87-1.1,24.18-4.18,31.08.5.48.33,6.21,4.29,6.01,4.61-.02.03-.08.02-.09.02-3.65-.5-7.52.1-11-1.12-3.06-1.07-12.46-1.83-38-1Z"/>
    <path class="cls-5" d="M707,400c5.9,1.75,13.32,3.61,22,5,17.04,2.72,30.13,2.2,34,2,6.3-.32,14.07-1.11,22.86-2.9-11.32-2.15-24-3.99-37.86-5.1-13.82-1.11-26.6-1.32-38.09-1-.97.67-1.94,1.33-2.91,2Z"/>
    <path class="cls-5" d="M920,668.39c39.44-10.22,87.44-18.07,142-17.39,14.96.19,29.27,1,42.87,2.28-17.07.71-35.43,2.17-54.87,4.72-29.76,3.91-56.64,9.64-80.28,16-9.11,1.06-18.21,2.13-27.32,3.19l-22.4-6.19v-2.61Z"/>
  </g>
  <g id="Camada_5">
    <path class="cls-3" d="M710,395c-.8.37-1.81.75-3,1-2.39.5-4.43.27-5.73,0-.34.18-.82.48-1.27,1-.67.77-.91,1.58-1,2,1.58.37,3.25.71,5,1,4.37.72,8.4.99,12,1v-6h-6Z"/>
    <path class="cls-12" d="M742,338c.33,1.33.67,2.67,1,4-.33,1.33-.67,2.67-1,4,.33.73.67,1.46,1,2.19.17.03.79.11,1-.19.25-.35-.09-1.19-1-2,.33-.67.67-1.33,1-2,.31.4.75,1.07,1,2,.36,1.34.14,2.47,0,3-.03.07-.23.53,0,1,.14.28.36.43.46.49l1.54.51c.34-.57.69-1.24,1-2,.62-1.52.89-2.91,1-4-1-2.33-2-4.67-3-7h-4Z"/>
    <path class="cls-3" d="M749.14,390.57c-.3.83-.74,1.81-1.4,2.84-1.32,2.05-2.92,3.34-4.02,4.08-.11.36-.23.92-.18,1.61.07,1.02.49,1.76.72,2.12,1.38-.86,2.79-1.81,4.22-2.86,3.58-2.6,6.61-5.29,9.14-7.84l-4.27-4.21-4.21,4.27Z"/>
    <path class="cls-9" d="M716,342c-2.03,7.71-3.88,16.77-5,27-1.05,9.64-1.24,18.39-1,26h6.7c.35-6.24,1.26-13.72,3.3-22,1.71-6.93,3.86-12.96,6-18,.43,4.06,1.79,11.86,7,20,5.48,8.56,12.42,13.14,16,15.18,1.67-1.06,3.33-2.12,5-3.18-4.84-4.76-14.97-16.14-17-33-.53-4.44-.42-8.49,0-12h-21"/>
    <path class="cls-12" d="M716,301c-1,1.33-2,2.67-3,4l-3-3c1.33-1.33,2.67-2.67,4-4,.67,1,1.33,2,2,3Z"/>
    <polygon class="cls-12" points="720.36 310.42 722 313 729 310 725.27 305 720.36 310.42"/>
    <path class="cls-13" d="M716,322c.88,1.92,1.82,4.66,2,8,.07,1.32.31,5.74-1,8-.17.3-.87,1.42-1,3-.03.43-.02.78,0,1h21c.17-3,.21-6.35,0-10-.19-3.28-.55-6.29-1-9,1.33,2.09,2.78,4.76,4,8,.97,2.57,1.59,4.95,2,7h4c.32-2.76.54-8.13-2-14-4.45-10.32-13.95-14.21-16-15-2.33,1-4.67,2-7,3-.46-.03-1.16-.05-2,0-2.39.13-4.12.72-5,1-1.68.54-4.2,1.24-8,2,2.33-3.33,4.67-6.67,7-10l-3-3-15,16c-.63.95-.62,2.16,0,3,.7.95,1.85,1,2,1h19Z"/>
    <path class="cls-12" d="M716,306c.12,1.22.38,2.95,1,5,.7.13,1.76.23,3,0,2.04-.38,3.4-1.45,4-2-1.33-3.33-2.67-6.67-4-10l-2-1c-.25.19-.63.52-1,1-1.47,1.91-1.26,4.32-1,7Z"/>
    <path class="cls-26" d="M713,297c.53-.81,1.48-2.02,3-3,3.75-2.42,8.5-1.69,12,0,2.84,1.38,3.74,2.85,4,4,.7,3.1-2.86,5.54-2,9,.35,1.39,1.26,2.38,2,3-.3.02-.64.03-1,0-1.32-.1-2.35-.6-3-1,.31.33.65.66,1,1,.43.41.85.79,1.26,1.14-.69.4-1.84.93-3.26.86-2.55-.12-4.9-2.09-6-5,1.01-3.23.59-4.47,0-5-.57-.52-1.27-.35-2-1-.89-.79-1.02-2.08-1-3-.32.24-.68.57-1,1-1.17,1.56-1.07,3.37-1,4-.52-.33-1.34-.96-2-2-1.06-1.68-1.04-3.37-1-4Z"/>
    <path class="cls-17" d="M720,303c.03-.33-.37-.67-1-1,1.39.25,2.15,1.27,2,2-.13.6-.86.92-1,.97.29.28.28.75,0,1.03-.27.26-.72.27-1,0-.23-.65-.38-1.43,0-2,.35-.53.97-.61,1-1Z"/>
  </g>
  <g id="Camada_6">
    <path class="cls-19" d="M944,676c3.76.45,7.76.8,12,1,5.73.27,11.08.23,16,0,1.06-3.07.63-4.53,0-5.3-1.45-1.75-4.41-.43-8-1.7-2.9-1.02-4.8-3.23-6-5.07-4.33.36-8.67.71-13,1.07-.33,3.33-.67,6.67-1,10Z"/>
    <path class="cls-9" d="M910,543l-5,122.53c2.62.34,5.64.56,9,.47,2.19-.06,4.23-.23,6.08-.47,3.64-33.51,7.28-67.02,10.92-100.53.52.32,2,1.15,4,1,1.43-.11,2.48-.67,3-1l6,102c1.88.21,4.27.31,7,0,3.31-.37,6.02-1.22,8-2,.76-40.67,1.51-81.33,2.27-122h-51.27Z"/>
    <path class="cls-18" d="M910,541c-.03,1.35-.06,2.7-.09,4.06,4.56,2.27,11.8,5.15,21.09,5.94,14.11,1.21,25.09-3.06,30.27-5.5v-4.5h-51.27Z"/>
    <g>
      <path class="cls-16" d="M841,476.95c.15.99.44,2.2,1,3.47,1.47,3.37,3.87,5.09,5,5.79,1.99,1.2,4.69,2.54,8,3.47,3.55,1,6.66,1.2,9,1.16.33.39.67.77,1,1.16.79-.13,2.53-.54,4-2,2.85-2.81,2.07-6.91,2-7.26-.43,0-1.16-.08-1.96-.45-.49-.23-.83-.5-1.04-.7-.84-.78-1.07-1.63-2-3.47-.43-.86-1.09-2.07-2-3.47-3-1.54-6-3.09-9-4.63h-3c-.08.46-.06.84,0,1.16.34,1.8,2.35,3.13,5,3.47.51.15.9.6,1,1.16.1.6-.17,1.07-.23,1.16-2.99,1.54-5.24,1.5-6.77,1.16-3.15-.71-5.15-3.17-8-2.32-.9.27-1.58.78-2,1.16Z"/>
      <path class="cls-17" d="M841,478.11c1.9,1.28,4.98,2.95,9,3.47,1.9.25,3.6.18,5,0-1.9-.29-3.91-.67-6-1.16-2.89-.67-5.56-1.47-8-2.32Z"/>
      <path class="cls-17" d="M842,480.42c1.18,1.07,3.54,2.92,6.92,3.58,2.04.4,3.78.24,5,0-1.85-.06-4.24-.36-6.92-1.26-1.98-.67-3.66-1.51-5-2.32Z"/>
      <path class="cls-17" d="M859,475.79s.01,4.63,1.01,4.63h1.72c-.37-.11-1.1-.4-1.73-1.16-1.14-1.38-1.02-3.18-1-3.47Z"/>
    </g>
    <g>
      <path class="cls-16" d="M1025.37,478.72c.04,1,0,2.24-.3,3.6-.78,3.6-2.8,5.75-3.77,6.66-1.72,1.57-4.1,3.41-7.17,4.97-3.28,1.67-6.3,2.48-8.6,2.89-.25.44-.5.89-.75,1.33-.8.02-2.58-.04-4.31-1.18-3.34-2.2-3.38-6.37-3.38-6.73.42-.09,1.12-.31,1.83-.83.44-.32.71-.66.89-.89.67-.92.73-1.81,1.28-3.8.26-.93.66-2.24,1.28-3.8,2.64-2.1,5.28-4.2,7.92-6.3l2.94-.59c.17.43.22.82.23,1.14.02,1.83-1.7,3.53-4.22,4.38-.47.25-.77.76-.75,1.33.01.61.38,1.02.45,1.09,3.23.92,5.43.45,6.87-.19,2.95-1.31,4.43-4.12,7.39-3.83.94.09,1.7.46,2.19.74Z"/>
      <path class="cls-17" d="M1025.59,479.85c-1.61,1.63-4.31,3.87-8.15,5.17-1.82.61-3.5.88-4.9.98,1.81-.66,3.7-1.42,5.66-2.31,2.7-1.23,5.17-2.53,7.39-3.83Z"/>
      <path class="cls-17" d="M1025.07,482.32c-.94,1.28-2.9,3.55-6.09,4.86-1.92.79-3.66.97-4.9.98,1.8-.42,4.09-1.18,6.54-2.59,1.82-1.04,3.29-2.2,4.45-3.25Z"/>
      <path class="cls-17" d="M1007.49,481.1s.89,4.54-.08,4.74l-1.69.34c.34-.18,1-.6,1.47-1.47.85-1.57.38-3.31.3-3.6Z"/>
    </g>
    <polyline class="cls-16" points="926 452 926 464.4 935.5 483.34 946 471.63 944 463.36 926 452"/>
    <path class="cls-17" d="M929.23,461.32c1.34,2.77,3.45,6.28,6.77,9.68,1.36,1.4,2.72,2.56,4,3.53,2.56-3.84,5.12-7.69,7.68-11.53l-18.45-1.68Z"/>
    <path class="cls-27" d="M926,465c-4.17,0-10.61.71-16,5-2.71,2.16-4.08,4.38-9,13-3.36,5.9-6.37,11.27-9,16-7.26-5.67-14.53-11.33-21.79-17-.01,1.07-.18,2.96-1.21,5-1.54,3.05-4.04,4.5-5,5,8,9.67,16,19.33,24,29,.65.37,2.09,1.05,4,1,2.69-.07,4.49-1.55,5-2,4.33-6,8.67-12,13-18v40c5.87,2.16,14.84,4.7,26,5,10.66.29,19.4-1.57,25.27-3.3v-42.77c4.3,6.57,8.59,13.13,12.89,19.7.35.3,1.76,1.43,3.84,1.37,1.49-.05,2.56-.7,3-1,8.33-7.33,16.67-14.67,25-22-3.94-.56-7.09-2.87-8-6-.46-1.56-.26-3.01,0-4l-18,13c-3.72-7.69-7.2-14.09-10-19-4.88-8.54-7.21-10.98-10-13-5.11-3.71-10.58-4.7-14-5-1.87,4.23-3.65,7.6-5,10-2.82,5.01-3.9,6.03-5,6-1.37-.04-2.26-1.75-4-5-1.27-2.36-3.3-6.12-6-11Z"/>
    <path class="cls-23" d="M943,472c3.67-1.67,7.33-3.33,11-5-1-.39-2.36-.8-4-1-1.59-.19-2.96-.13-4,0l-3,6Z"/>
    <path class="cls-23" d="M935.77,481.71c.42,16.84.32,33.69-.34,50.53-.18,4.76-.41,9.51-.68,14.27-.05.96,1.45.96,1.5,0,.96-16.9,1.38-33.83,1.25-50.75-.04-4.68-.11-9.36-.23-14.04-.02-.96-1.52-.97-1.5,0h0Z"/>
    <path class="cls-23" d="M943.27,494.67c1.93,0,1.93-3,0-3s-1.93,3,0,3h0Z"/>
    <path class="cls-23" d="M943.86,504.68c1.93,0,1.93-3,0-3s-1.93,3,0,3h0Z"/>
    <path class="cls-23" d="M943.86,514.68c1.93,0,1.93-3,0-3s-1.93,3,0,3h0Z"/>
    <path class="cls-23" d="M943.56,523.67c1.93,0,1.93-3,0-3s-1.93,3,0,3h0Z"/>
    <path class="cls-26" d="M925,422.81c-4.04,2.75-4.95,5.07-5,6.72-.05,1.79.92,2.83,2,6.72.54,1.96.82,3.61.98,4.72.67.35,1.35.69,2.02,1.04l1,9.59c.35.56.7,1.2,1,1.92,1.12,2.64,1.15,5.09,1,6.72,1.38,1.53,3.97,3.99,8,5.76,5.14,2.25,9.81,2.12,12,1.92-.67-.64-1.33-1.28-2-1.92.65.38,1.68.86,3,.96.36.03.7.02,1,0-.07-.85-.08-1.82,0-2.88.15-1.91.56-3.53,1-4.8.6-1.31,1.48-3.76,1-6.72-.14-.84-.36-1.58-.61-2.21v-12.16l.61,2.69c.59-.33,1.38-.87,2-1.76,1.09-1.54.97-3.12,1-4.8.1-5.19,1.54-5.18,1-7.68-.89-4.11-5.3-6.37-6-6.72-2.73-1.35-3.55-.47-11-.96-7.09-.47-9.76-1.49-12,.35-1.26,1.03-1.77,2.46-2,3.49Z"/>
    <path class="cls-16" d="M929,434c1.94.33,4.73.56,8,0,5.4-.93,9.16-3.52,11-5,.45.87,1.09,1.92,2,3,.69.82,1.38,1.48,2,2v10c.9,1.3,1.03,2.33,1,3-.04.93-.4,1.48-1,3-.48,1.23-.8,2.27-1,3-.93-.63-3.5-2.16-7-2-5.44.26-8.57,4.41-9,5-.73.17-1.8.3-3,0-3.52-.88-4.87-4.61-5-5v-9c.35-.91.69-1.91,1-3,.51-1.82.82-3.51,1-5Z"/>
    <path class="cls-16" d="M922,441c-2.58,1.75-3.06,3.09-3,4,.08,1.32,1.31,1.98,3,5,.46.83.79,1.54,1,2,.1.19.39.7,1,1,.95.47,1.87.06,2,0v-10.21c-.1-.21-.66-1.36-2-1.79-.91-.29-1.7-.09-2,0Z"/>
    <path class="cls-17" d="M945.11,438.83c-.24,1.87-.44,3.95,0,5.81.27,1.15.9,2.17,1.41,3.22.36.74.71,1.48.96,2.26.06.18.09.36.14.54.04.15-.02.1.02.08-.46.31-1.31.08-1.81-.02-.76-.15-1.51-.34-2.24-.61-.54-.2-.78.67-.24.87.84.32,1.72.53,2.6.68.64.11,1.42.25,2.03-.06.89-.46.48-1.48.2-2.2-.54-1.39-1.32-2.67-1.89-4.04-.82-1.98-.53-4.43-.27-6.51.07-.57-.83-.57-.9,0h0Z"/>
    <path class="cls-23" d="M908.98,488c.79,1.51,2.22,4.75,2,9-.14,2.68-.89,4.81-1.5,6.18-.17-5.06-.33-10.12-.5-15.18Z"/>
    <path class="cls-23" d="M962.25,488.1c-.79,1.51-2.22,4.75-2,9,.14,2.68.89,4.81,1.5,6.18.17-5.06.33-10.12.5-15.18Z"/>
    <path class="cls-6" d="M942,459c1.33-1.69,3.32-2.45,5-1.93.06.02.12.04.18.06.93.34,1.53,1.01,1.82,1.41-.59-.11-1.29-.18-2.08-.18-.52,0-.95.04-1.92.18-.77.1-1.79.25-3,.47Z"/>
    <path class="cls-8" d="M935.32,440.11c1.44-1.44,3.6-1.97,5.56-1.47.56.14.8-.72.24-.87-2.27-.58-4.77.04-6.44,1.7-.41.41.23,1.05.64.64h0Z"/>
    <path class="cls-8" d="M951.16,437.74c-1.55-.62-3.29-.67-4.9-.24-.56.15-.32,1.02.24.87,1.46-.39,3.01-.33,4.42.24.23.09.49-.1.55-.31.07-.26-.09-.46-.31-.55h0Z"/>
    <path class="cls-7" d="M948.6,442c-.88,0-1.6.9-1.6,2s.71,2,1.6,2c.21,0,.4-.05.58-.14-.16-.12-.26-.31-.26-.52,0-.37.29-.67.64-.67.19,0,.35.09.47.22.11-.27.17-.57.17-.89,0-1.1-.71-2-1.6-2Z"/>
    <path class="cls-7" d="M938.99,445.33c0-.37.3-.67.66-.67.19,0,.36.09.48.22.11-.27.18-.57.18-.89,0-1.1-.74-2-1.66-2s-1.66.9-1.66,2,.74,2,1.66,2c.21,0,.42-.05.6-.14-.16-.12-.27-.31-.27-.52Z"/>
  </g>
  <g id="Camada_1">
    <path class="cls-26" d="M1220,486c-1.1-2.75-2.75-8.13-1-14,.57-1.92,2.16-6.08,11-13,7.25-5.67,12.7-9.94,21-12,11.38-2.83,26.86-1.21,37,8,11.53,10.48,4.34,20.06,17,38,9.82,13.92,18.63,14.51,21,25,2.35,10.42-3.85,20.83-9.82,28.28-26.73.24-53.45.48-80.18.72-8.17-5.8-10.65-11.36-11.42-15.34-2.69-13.91,11.05-31.54,11.05-31.54h0l-15.63-14.12Z"/>
    <path class="cls-8" d="M1216.06,878.88c-7.59,3.27-13.05,5.06-17.06,6.12-1.32.35-3.71.94-5,3-1.59,2.54-.59,5.85,0,7.42,5.06,1.25,11.12,2.29,18,2.58,14.32.61,26.11-2.29,34-5,.35-.94,3.6-10.14-1-16-5.03-6.4-18.35-7.42-28.94,1.88Z"/>
    <path class="cls-8" d="M1300.13,879.76c-6.86,4.62-11.89,7.39-15.64,9.18-1.24.59-3.47,1.61-4.36,3.87-1.09,2.79.5,5.86,1.37,7.29,5.21.29,11.36.19,18.17-.8,14.18-2.05,25.23-7.09,32.49-11.21.17-.99,1.66-10.63-3.94-15.54-6.13-5.36-19.41-3.9-28.09,7.2Z"/>
    <path class="cls-29" d="M1303,867c.42,1.09,1.77,4.99,0,9-.57,1.3-1.33,2.29-2,3,2.4.5,6.34,1,11,0,7.52-1.61,12.21-6.09,14-8-2-3.33-4-6.67-6-10l-17,6Z"/>
    <path class="cls-29" d="M1223.24,871.3l-8.24,8.7c2.41.87,5.45,1.69,9,2,9.14.81,16.37-2.17,20-4l-.58-9.58-20.18,2.89Z"/>
    <path class="cls-9" d="M1229.15,647.51c-5.28,23.73-8.32,44.61-10.15,61.49-4.28,39.52-3.26,69.4-3,76,.28,7.08.85,15.05,2,31,1.67,23.14,3.35,42.15,4.58,55.21,3.02.45,6.52.78,10.42.79,4.16.02,7.89-.32,11.06-.79,4.11-53.95,4.98-71.64,4.94-77.21-.01-1.48-.13-7.77,1-16,.38-2.75.79-4.92,1-6,3.67-16.67,7.33-33.33,11-50v-68.88l-32.85-5.61Z"/>
    <path class="cls-4" d="M1248,691c2.37,5.58,5.32,11.66,9,18,2.32,3.99,4.67,7.65,7,11,3-6.67,6-13.33,9-20-8.33-3-16.67-6-25-9Z"/>
    <path class="cls-9" d="M1253,692c2.33,2.67,4.67,5.33,7,8,6.26,34.64,8.34,49.76,9,57,.19,2.14.76,9.05,3,18,1.29,5.14,2.61,8.88,3,10,3.09,8.84,11.43,35.41,26,83,3.42.44,7.88.66,13,0,3.47-.45,6.49-1.2,9-2-5-44.5-10.06-71.81-14-89-.63-2.76-1.33-5.67-2-10-3.23-20.84.79-31.84,3-61,.89-11.7,1.33-17.56,1-24-.94-18.42-5.88-33.22-10-43-16,3.33-32,6.67-48,10v43Z"/>
    <path class="cls-29" d="M1305.88,602.98l7.12,18.02v68.2c-4.86,5.91-5.96,10.55-6,13.8-.01,1.35.15,3.01,0,6-.18,3.67-.69,6.66-1.12,8.67.5.25,1.29.54,2.12.33.83-.2,1.64-.88,3-4,.6-1.39,1.37-3.38,2-5.91v14.94c.08.82.12,1.83,0,2.97-.17,1.66-.6,3.02-1,4,.95.63,2.16.62,3,0,.95-.7,1-1.85,1-2-.09.83.31,1.62,1,2,.89.49,1.79.04,1.87,0,6.39-5.45,8.43-10.47,9.13-14,.64-3.23.18-5.33,0-14-.1-4.85-.05-8.78,0-11.27,4.55-29.76,7.38-52.29,8-61.73.28-4.3.2-7.39,0-10-.41-5.36-1.41-9.49-3-16-.66-2.72-1.65-6.5-3-11-7.33.67-14.67,1.33-22,2l-2.12,8.98Z"/>
    <path class="cls-29" d="M1195,549c10.73-16.29,21.47-32.59,32.2-48.88l3.8-5.12c-3.67-3-7.33-6-11-9-31.39,37.02-44.73,52.42-49,57-.03.04-.04.05-.07.08-.72.78-5.16,5.74-5.93,11.92-.18,1.45-.77,6.23,2,9h0c.49.92,1.53,2.55,3.45,3.92,2.25,1.6,4.49,1.97,5.55,2.08h44l2-26c-9,1.67-18,3.33-27,5Z"/>
    <path class="cls-25" d="M1202,548c.42,2.51.76,5.18,1,8,.53,6.28.42,12,0,17,8-.33,16-.67,24-1-1.13,3.26-2.32,8.13-2,14,.39,7.15,2.83,12.49,4,15,.54,1.14.62,1.18,1,2,2.75,5.83,2.64,12.2,1,24-.66,4.77-1.61,10.68-3,17.45-.1.38-.18.95,0,1.55.52,1.72,2.86,2.53,5,3,52.2,11.57,69-4,69-4,1-.92,1.73-1.71,2-2,.35-.38.88-1.07,1-2,.19-1.52-.85-2.8-1-3-1.09-1.5-2.46-11.94-4-45,1.33,3.67,2.67,7.33,4,11,3.58-2.03,8.63-4.41,15-6,5.56-1.39,10.48-1.76,14.27-1.77-3.29-11.81-7.02-24.54-11.27-38.23-1.28-4.11-2.79-8.79-7-13-6.55-6.55-15.42-7.76-20.28-8h-44.72c-1.19-.07-2.92-.12-5,0-3.31.2-5.79.73-7,1-4.28.95-17.81,4.61-36,10Z"/>
    <path class="cls-29" d="M1250,537c.89.07,4.1.2,7-2,4.24-3.21,4.03-8.53,4-9-.31-6.67,2.73-12.85,8-16,4.62-2.76,9.36-2.25,11-2-.83,2.98-2.17,9.43,0,17,1.3,4.52,3.4,7.87,5,10l9.72,2c-2.75,4.21-8.97,12.26-19.72,16-5.14,1.79-13.39,4.66-19.47,0-6.54-5.01-5.64-14.94-5.53-16Z"/>
    <path class="cls-17" d="M1275,515c-.77,2.79-2.95,9.13-9,14-2.5,2.01-5,3.24-7,4,.36-.55.72-1.22,1-2,1.08-2.99.4-5.75,0-7l15-9Z"/>
    <path class="cls-29" d="M1227,484c-.54,3.31-1.05,8.65,0,15,1.87,11.27,9.06,28.17,21,30,2.43.37,7.4.6,12.32-1.65,1.75-.8,3.65-1.89,5.68-3.35,2.31-1.55,5.18-3.81,8-7,2.21-2.5,3.83-4.94,5-7,.66.12,1.74.24,3,0,6.36-1.23,11.76-10.79,9-17-.08-.18-2.01-4.35-6-5-2.35-.38-4.31.64-5,1-2.41,1.25-3.59,3.22-4,4-2.38-.79-6.93-2.66-11-7-5.52-5.87-6.69-12.56-7-15-2.21,2.82-9.29,11.07-21,13-3.87.64-7.3.43-10,0Z"/>
    <path class="cls-8" d="M1232.02,489.42c1.45-1.53,3.67-2.17,5.73-1.61.75.2,1.06-.95.32-1.16-2.45-.67-5.15.07-6.9,1.92-.53.56.32,1.41.85.85h0Z"/>
    <path class="cls-8" d="M1255.8,487.98c-2.37-1.11-5.04-1.38-7.58-.74-.75.19-.43,1.35.32,1.16,2.22-.56,4.58-.35,6.66.62.29.14.65.08.82-.22.15-.26.08-.68-.22-.82h0Z"/>
    <path class="cls-8" d="M1232.35,495.15c.71-.67,1.81-.83,2.75-.83s1.87.24,2.71.65c.29.14.65.08.82-.22.15-.26.08-.68-.22-.82-1.05-.51-2.21-.83-3.39-.82-1.25.01-2.6.3-3.52,1.18-.56.53.29,1.38.85.85h0Z"/>
    <path class="cls-8" d="M1248.25,495.54c.71-.67,1.81-.83,2.75-.83s1.87.24,2.71.65c.29.14.65.08.82-.22.15-.26.08-.68-.22-.82-1.05-.51-2.21-.83-3.39-.82-1.25.01-2.6.3-3.52,1.18-.56.53.29,1.38.85.85h0Z"/>
    <path class="cls-8" d="M1248.03,518.19c2.62-1.17,5.77-.85,8.17.83.63.44,1.23-.6.61-1.04-2.75-1.93-6.33-2.19-9.38-.83-.7.31-.09,1.35.61,1.04h0Z"/>
    <path class="cls-7" d="M1252,494.5c-1.38,0-2.5,1.34-2.5,3s1.12,3,2.5,3c.32,0,.63-.08.91-.21-.24-.18-.41-.46-.41-.79,0-.55.45-1,1-1,.29,0,.55.13.73.33.17-.4.27-.85.27-1.33,0-1.66-1.12-3-2.5-3Z"/>
    <path class="cls-7" d="M1236.5,499.5c0-.55.45-1,1-1,.29,0,.55.13.73.33.17-.4.27-.85.27-1.33,0-1.66-1.12-3-2.5-3s-2.5,1.34-2.5,3,1.12,3,2.5,3c.32,0,.63-.08.91-.21-.24-.18-.41-.46-.41-.79Z"/>
    <path class="cls-17" d="M1195,549c1.08,2.36.68,5.12-1,7-2.34,2.62-5.81,2.03-6,2,.95-.82,1.98-1.82,3-3,1.85-2.14,3.12-4.25,4-6Z"/>
    <path class="cls-24" d="M1290,577c1.31.29,4.45,1.17,7,4,4.38,4.87,3.16,11.25,3,12-.64-2.04-1.58-4.44-3-7-2.26-4.07-4.9-7.02-7-9Z"/>
    <path class="cls-24" d="M1229,557c-.67,5-1.33,10-2,15,.44-.92,1.12-2.32,2-4,1.43-2.75,1.78-3.22,2-4.09.34-1.36.32-3.59-2-6.91Z"/>
    <path class="cls-17" d="M1319,712c-.3,1.97-.64,3.97-1,6-.62,3.45-1.29,6.78-2,10,1.1-2.07,2.49-5.3,3-9.45.31-2.55.21-4.79,0-6.55Z"/>
  </g>
  <g id="Camada_2">
    <path class="cls-31" d="M796,780c2,6.33,4,12.67,6,19,3.51.01,19.69-.3,33-13,10.89-10.39,13.36-22.89,14-27-10.28-8.41-17.05-13.97-17.03-13.99,0,0,.02-.01.03-.01,0,0,.02,0,.02,0,.01.01-13.31,12.96-36.02,34.99Z"/>
    <path class="cls-14" d="M720,736l3,52c.21,1.46.71,3.64,2,6,.98,1.78,2.1,3.1,3,4,5.62-1.15,12.75-2.1,21-2,7.19.09,13.47.95,18.58,2,2.14-5.67,4.28-11.33,6.42-17l-54-45Z"/>
    <path class="cls-14" d="M808,673c5.89.35,14.19,1.13,24,3,10.92,2.08,17.62,3.36,25,7,4.29,2.12,9.41,5.33,24,21,6.37,6.84,14.71,16.23,24,28,.01.7-.05,2.3-1,4-.99,1.76-2.39,2.66-3,3-19.67-2.67-39.33-5.33-59-8l-34-58Z"/>
    <polygon class="cls-10" points="808 673 861.26 733.61 842 731 808 673"/>
    <path class="cls-10" d="M720,746c5.49,5.19,11.24,11.17,17,18,9.79,11.62,17.28,22.96,23,33,2.67.33,5.33.67,8,1,2-5.67,4-11.33,6-17-18.33-17.67-36.67-35.33-55-53,.33,6,.67,12,1,18Z"/>
    <g>
      <path class="cls-28" d="M635,549c-.05,2.04-.09,5.18,0,9,.69,28.11,7.67,49.02,11,59,7.45,22.31,24.77,60.29,57,100,16.27,20.05,41.82,47.28,79,73,10.85-5.84,24.32-14.46,38-27,10.68-9.79,18.86-19.56,25-28-4.83-10.24-46.84-97.62-109-144-17.05-12.72-47.21-35.23-91-41-4.21-.55-7.7-.84-10-1Z"/>
      <path class="cls-14" d="M645.04,550c-4.21-.55-7.7-.84-10-1-.05,2.04-.09,5.18,0,9,.69,28.11,7.67,49.02,11,59,.83,2.49,1.8,5.19,2.88,8.06,9.07-8.83,19.06-17.91,30.07-27.06,10.9-9.06,21.56-17.14,31.78-24.36-16.78-10.1-38.65-20.07-65.73-23.64Z"/>
    </g>
    <path class="cls-30" d="M663,612c-4.69,4.35-9.38,8.71-14.07,13.06,7.58,19.2,18.15,41.14,33.07,63.94,32.76,50.05,71.95,82.04,100,101,3.37-1.54,7.1-3.5,11-6,2.59-1.67,4.92-3.36,7-5-25.23-17.91-58.23-45.57-89-86-22.39-29.42-37.62-57.73-48-81Z"/>
    <g>
      <ellipse class="cls-15" cx="720" cy="644" rx="28" ry="30"/>
      <ellipse class="cls-31" cx="717.92" cy="643.74" rx="21.71" ry="23.26"/>
    </g>
    <path class="cls-14" d="M781,717c1.52,5.31,3.47,11.03,6,17,6.25,14.74,14.03,26.36,21,35.04,10.33,9.99,20.67,19.97,31,29.96h11c-9-14.33-18-28.67-27-43-6.12-8.75-13.98-18.41-24-28-4.26-4.08-8.48-7.73-12.57-11h-5.43Z"/>
    <path class="cls-10" d="M783,718c21.67,27,43.33,54,65,81h-9c-6.06-4.69-13.82-11.28-22-20-5.32-5.67-12.32-13.12-19-24-4.81-7.83-11.14-20.18-15-37Z"/>
    <path class="cls-10" d="M663,612l-27.96-63c-.52,8.58-.46,18.73.96,30,2.41,19.19,7.89,34.81,12.93,46.06,4.69-4.35,9.38-8.71,14.07-13.06Z"/>
  </g>
</svg>