<svg width="334" height="334" viewBox="0 0 334 334" fill="none" xmlns="http://www.w3.org/2000/svg">
<path d="M334 167C334 259.232 259.232 334 167 334C74.7684 334 0 259.232 0 167C0 74.7684 74.7684 0 167 0C259.232 0 334 74.7684 334 167Z" fill="black"/>
<path d="M334 167C334 259.232 259.232 334 167 334C74.7684 334 0 259.232 0 167C0 74.7684 74.7684 0 167 0C259.232 0 334 74.7684 334 167Z" fill="url(#paint0_radial_1_26)" fill-opacity="0.3"/>
<path fill-rule="evenodd" clip-rule="evenodd" d="M166.84 309.732C245.581 309.732 309.413 245.9 309.413 167.16C309.413 88.419 245.581 24.587 166.84 24.587C88.0995 24.587 24.2676 88.419 24.2676 167.16C24.2676 245.9 88.0995 309.732 166.84 309.732ZM166.84 316.119C249.108 316.119 315.799 249.427 315.799 167.16C315.799 84.8919 249.108 18.2008 166.84 18.2008C84.5725 18.2008 17.8813 84.8919 17.8813 167.16C17.8813 249.427 84.5725 316.119 166.84 316.119Z" fill="url(#paint1_angular_1_26)"/>
<path d="M108.566 180.095H126.195L108.566 205.248V224.761V244.273L155.153 180.095H177.619L180.996 157.276H173.334L188.787 136.272L180.476 205.248H205.15L216.707 89.7266H193.073L143.596 157.276H124.928L116.747 168.685L108.566 180.095Z" fill="white"/>
<path fill-rule="evenodd" clip-rule="evenodd" d="M192.587 88.7686H217.766L206.017 206.206H179.396L187.401 139.773L175.228 156.318H182.106L178.446 181.053H155.642L107.608 247.224V204.945L124.353 181.053H106.7L124.437 156.318H143.11L192.587 88.7686ZM193.559 90.6845L144.082 158.234H125.42L110.432 179.137H128.036L109.524 205.55V241.323L154.665 179.137H176.793L179.886 158.234H171.44L190.174 132.771L181.557 204.29H204.283L215.649 90.6845H193.559Z" fill="#29B6F6"/>
<defs>
<radialGradient id="paint0_radial_1_26" cx="0" cy="0" r="1" gradientUnits="userSpaceOnUse" gradientTransform="translate(167 167) rotate(90) scale(167)">
<stop stop-color="#29B6F6"/>
<stop offset="1" stop-opacity="0"/>
</radialGradient>
<radialGradient id="paint1_angular_1_26" cx="0" cy="0" r="1" gradientUnits="userSpaceOnUse" gradientTransform="translate(166.84 167.16) rotate(108.396) scale(147.727)">
<stop offset="0.333333" stop-color="#29B6F6"/>
<stop offset="0.75" stop-color="#00EACF"/>
</radialGradient>
</defs>
</svg>