<svg width="114" height="114" viewBox="0 0 114 114" fill="none" xmlns="http://www.w3.org/2000/svg" class="w-20 h-20 md:w-28 md:h-28"><path d="M73.1185 73.1172L102.6 102.6H91.8532L67.7445 78.4923L73.1185 73.1172Z" fill="#2ECC71"></path><path d="M56.9977 35.5041L32.8947 11.3999H22.1502L51.6249 40.8723L56.9977 35.5041Z" fill="#2ECC71"></path><path d="M83.863 51.6235L102.595 32.8933V22.1477L78.4913 46.2496L83.863 51.6235Z" fill="#2ECC71"></path><path d="M56.9977 46.2497L91.8475 11.3999H102.595L67.7445 46.2497L102.6 81.1063V91.852L56.9977 46.2497Z" fill="#1982FC"></path><path d="M46.2475 67.7445L40.877 62.3694L11.4 91.8486V102.597L46.2475 67.7479V67.7445Z" fill="#2ECC71"></path><path d="M67.74 67.7387L32.8936 102.596H22.1468L56.9977 67.7444L11.4034 22.1478V11.3999L67.74 67.7387Z" fill="#1982FC"></path></svg>