<?xml version="1.0" encoding="UTF-8"?>
<svg xmlns="http://www.w3.org/2000/svg" width="72" height="73" viewBox="0 0 72 73" fill="none">
  <g clip-path="url(#clip0_51_614)">
    <path d="M36.2417 0.980179C43.3515 1.02787 50.2879 3.17971 56.1762 7.16435C62.0646 11.149 66.6412 16.788 69.329 23.3702C72.0168 29.9525 72.6954 37.1832 71.2792 44.1506C69.8629 51.118 66.4153 57.51 61.3711 62.5207C56.3269 67.5313 49.912 70.9361 42.9353 72.3057C35.9586 73.6753 28.7325 72.9484 22.1684 70.2167C15.6043 67.485 9.99597 62.8707 6.05078 56.9558C2.10559 51.041 0.000159918 44.0903 0 36.9805C0.0322761 27.4007 3.86866 18.226 10.6653 11.4747C17.4618 4.72339 26.6619 0.948418 36.2417 0.980179Z" fill="#2656D7"></path>
    <path d="M40.5364 57.883L36.4082 60.2671L27.54 55.1544L31.5674 52.8289L31.6682 52.7703L40.5364 57.883Z" fill="white"></path>
    <path d="M56.3834 25.6738V30.4725L45.2858 24.0657L29.4552 33.2082V36.0377L22.8187 32.2072L16.4354 35.89V25.6738L36.4082 14.1426L56.3834 25.6738Z" fill="white"></path>
    <path d="M56.3834 35.9327V48.7556L45.2882 55.1553H45.2741L34.1906 48.7556V35.9327L45.2882 29.5236L56.3834 35.9327Z" fill="white"></path>
    <path d="M29.1997 41.3521V48.72L22.8164 52.4075L16.4354 48.7224V41.3545L22.8187 37.6693L29.1997 41.3521Z" fill="white"></path>
  </g>
  <defs>
    <clipPath id="clip0_51_614">
      <rect width="72.0006" height="72" fill="white" transform="translate(0 0.97998)"></rect>
    </clipPath>
  </defs>
</svg>
