<svg width="218" height="211" viewBox="0 0 218 211" fill="none" xmlns="http://www.w3.org/2000/svg">
<path d="M25.3874 50.548V75.6113H0.711609V89.254H0.750367V114.395H14.3931V89.254H25.3874H38.9784H39.0171V50.548H25.3874Z" fill="#0AA8B3"/>
<path d="M204.28 98.9175V123.994H179.617V137.624H179.656V162.777H193.286V137.624H204.28H217.884H217.923V98.9175H204.28Z" fill="#0AA8B3"/>
<path d="M50.9289 122.676V147.739H26.2661V161.369H26.3049V186.523H39.9347V161.369H50.9289H64.52H64.5717V122.676H50.9289Z" fill="#0AA8B3"/>
<path d="M178.713 25.2655V50.3418H154.037V63.9716H154.076V89.1253H167.719V63.9716H178.713H192.304H192.343V25.2655H178.713Z" fill="#0AA8B3"/>
<path d="M91.1329 0.641159V25.7045H115.809V39.3472H115.757V64.5009H102.127V39.3472H91.1329H77.5419H77.5031V0.641159H91.1329Z" fill="#0AA8B3"/>
<path d="M217.923 89.2283H192.846V113.904H179.216V113.865H154.063V100.236H179.216V89.2283V75.6373V75.5985H217.923V89.2283Z" fill="#0AA8B3"/>
<path d="M64.5714 113.995H39.4952V138.671H25.8654V138.619H0.711609V124.989H25.8654V113.995V100.404V100.365H64.5714V113.995Z" fill="#0AA8B3"/>
<path d="M115.757 146.913V171.989H140.42V185.619H140.382V210.773H126.752V185.619H115.757H102.154H102.115V146.913H115.757Z" fill="#0AA8B3"/>
<path d="M51.0446 186.096H77.5161V210.772H91.1588V210.733H115.783V197.09H91.1588V186.096V172.505V172.466H51.0446V186.096Z" fill="#0AA8B3"/>
<path d="M129.116 160.556H154.192V185.219H167.822V185.18H193.544V171.55H167.822V160.556V146.965V146.913H129.116V160.556Z" fill="#0AA8B3"/>
<path d="M25.3869 39.8255H50.4502V64.5012H64.08V64.4495H91.2879V50.8197H64.08V39.8255V26.2344V26.1957H25.3869V39.8255Z" fill="#0AA8B3"/>
<path d="M126.816 38.9467V14.271H102.115V0.641159H140.446V0.679917V14.271V25.2652H167.977V38.9079" fill="#0AA8B3"/>
<path d="M64.1451 75.5851H50.4636V89.2666H64.1451V75.5851Z" fill="#0AA8B3"/>
<path d="M167.744 124.007H154.063V137.688H167.744V124.007Z" fill="#0AA8B3"/>
<path d="M140.472 50.82H126.79V64.5015H140.472V50.82Z" fill="#0AA8B3"/>
<path d="M91.1846 146.913H77.5031V160.595H91.1846V146.913Z" fill="#0AA8B3"/>
</svg>
