<?xml version="1.0" encoding="UTF-8"?>
<!DOCTYPE svg PUBLIC "-//W3C//DTD SVG 1.1//EN" "http://www.w3.org/Graphics/SVG/1.1/DTD/svg11.dtd">
<!-- Creator: CorelDRAW (Evaluation Version) -->
<svg xmlns="http://www.w3.org/2000/svg" xml:space="preserve" width="200px" height="200px" version="1.1" style="shape-rendering:geometricPrecision; text-rendering:geometricPrecision; image-rendering:optimizeQuality; fill-rule:evenodd; clip-rule:evenodd"
viewBox="0 0 200 200"
 xmlns:xlink="http://www.w3.org/1999/xlink"
 xmlns:xodm="http://www.corel.com/coreldraw/odm/2003">
 <defs>
  <style type="text/css">
   <![CDATA[
    .str0 {stroke:#133569;stroke-width:10;stroke-miterlimit:22.9256}
    .str1 {stroke:#133569;stroke-width:6;stroke-miterlimit:22.9256}
    .fil0 {fill:none}
    .fil1 {fill:#133569}
   ]]>
  </style>
 </defs>
 <g id="Layer_x0020_1">
  <metadata id="CorelCorpID_0Corel-Layer"/>
  <polygon class="fil0 str0" points="100,10.06 135.69,27.87 171.37,45.69 180.19,85.71 189,125.74 164.3,157.84 139.61,189.94 100,189.94 60.39,189.94 35.7,157.84 11,125.74 19.81,85.71 28.63,45.69 64.31,27.87 "/>
  <g>
   <path class="fil0 str1" d="M81.55 123.86c0,7.45 1.43,12.66 4.27,15.66 2.85,3.01 7.6,4.52 14.24,4.52 6.61,0 11.32,-1.53 14.14,-4.58 2.85,-3.05 4.25,-8.24 4.25,-15.6l0 -10.02 18.8 0 0 8.1c0,6.8 -0.41,11.96 -1.26,15.47 -0.84,3.51 -2.27,6.67 -4.25,9.48 -3.01,4.36 -7.16,7.6 -12.45,9.8 -5.26,2.21 -11.68,3.3 -19.23,3.3 -6.88,0 -12.84,-0.92 -17.9,-2.75 -5.07,-1.83 -9.25,-4.58 -12.48,-8.24 -2.51,-2.81 -4.29,-6.21 -5.38,-10.17 -1.09,-3.99 -1.62,-9.61 -1.62,-16.89l0 -8.1 18.87 0 0 10.02zm36.9 -26.37l0 -20.44 -9.97 0 0 -13.07 39.79 0 0 13.07 -11.02 0 0 20.44 -18.8 0zm-55.77 0l0 -20.44 -10.95 0 0 -13.07 40.25 0 0 13.07 -10.43 0 0 20.44 -18.87 0z"/>
   <path id="_1" class="fil1" d="M81.55 123.86c0,7.45 1.43,12.66 4.27,15.66 2.85,3.01 7.6,4.52 14.24,4.52 6.61,0 11.32,-1.53 14.14,-4.58 2.85,-3.05 4.25,-8.24 4.25,-15.6l0 -10.02 18.8 0 0 8.1c0,6.8 -0.41,11.96 -1.26,15.47 -0.84,3.51 -2.27,6.67 -4.25,9.48 -3.01,4.36 -7.16,7.6 -12.45,9.8 -5.26,2.21 -11.68,3.3 -19.23,3.3 -6.88,0 -12.84,-0.92 -17.9,-2.75 -5.07,-1.83 -9.25,-4.58 -12.48,-8.24 -2.51,-2.81 -4.29,-6.21 -5.38,-10.17 -1.09,-3.99 -1.62,-9.61 -1.62,-16.89l0 -8.1 18.87 0 0 10.02zm36.9 -26.37l0 -20.44 -9.97 0 0 -13.07 39.79 0 0 13.07 -11.02 0 0 20.44 -18.8 0zm-55.77 0l0 -20.44 -10.95 0 0 -13.07 40.25 0 0 13.07 -10.43 0 0 20.44 -18.87 0z"/>
  </g>
 </g>
</svg>
